# xmcd
#
# Track frame offsets:
#	150
#	27581
#	46942
#	63028
#	89551
#	123495
#	152048
#	178541
#	198609
# Disc length: 3113 seconds
# Revision: 1
# Processed by: cddbd v1.5.1PL0 Copyright (c) Steve Scherf et al.
#
# Submitted via: libkcddb 0.21
#
DISCID=770c2709
DTITLE=Midnite Walk - Take a Walk
DYEAR=1999
DGENRE=Blues
TTITLE0=Things Ain't What They Used To Be
TTITLE1=Gotta Get You Off Of My Mind
TTITLE2=T Bone Shuffle
TTITLE3=Murder On Your Hands
TTITLE4=Sweet Little Angel
TTITLE5=Hucklebuck
TTITLE6=People Get Ready
TTITLE7=Spooky
TTITLE8=Love Slips Up On Ya
EXTD=
EXTT0=
EXTT1=
EXTT2=
EXTT3=
EXTT4=
EXTT5=
EXTT6=
EXTT7=
EXTT8=
PLAYORDER=
